<svg width="727" height="578" viewBox="0 0 727 578" fill="none" xmlns="http://www.w3.org/2000/svg">
<path d="M611.908 478.083C611.908 374.89 611.92 271.99 611.901 169.091C611.897 147.781 607.362 127.482 597.97 108.307C597.755 107.867 597.52 107.436 597.239 106.894C594.517 105.703 591.518 105.149 588.574 104.474C575.271 101.424 561.771 100.501 548.196 101.547C521.622 103.596 497.523 112.529 476.246 128.598C450.092 148.35 432.983 174.21 424.968 205.993C422.101 217.363 421.031 228.953 421.084 240.68C421.178 261.868 421.135 283.056 421.122 304.244C421.121 305.604 421.078 307.013 420.736 308.315C419.194 314.182 412.434 316.722 407.346 313.398C406.529 312.864 405.781 312.219 405.028 311.591C382.795 293.054 360.567 274.51 338.333 255.973C328.987 248.182 319.675 240.348 310.252 232.65C307.184 230.144 305.817 227.155 305.834 223.225C305.911 204.489 305.933 185.754 305.875 167.018C305.81 145.873 300.819 125.894 291.386 106.915C288.584 105.703 285.587 105.148 282.643 104.473C269.341 101.419 255.84 100.501 242.266 101.548C215.904 103.584 191.964 112.4 170.791 128.26C144.736 147.776 127.558 173.351 119.354 204.876C116.449 216.039 115.178 227.411 115.178 238.934C115.178 278.073 115.177 317.212 115.177 356.351C115.177 419.621 115.175 482.891 115.18 546.16C115.18 553.223 115.229 560.285 115.231 567.347C115.231 568.421 115.141 569.499 115.022 570.568C114.394 576.189 107.245 580.348 101.43 576.5C100.697 576.015 100.026 575.432 99.3482 574.867C78.3943 557.4 57.4453 539.927 36.4909 522.461C26.3907 514.042 16.2811 505.634 6.17601 497.221C5.271 496.467 4.36883 495.71 3.46315 494.958C1.129 493.018 -0.0174885 490.546 0.000201595 487.499C0.0292453 482.497 0.00605403 477.494 0.00730692 472.491C0.0129071 450.126 0.0239502 427.761 0.0246806 405.396C0.0272559 326.529 0.0830817 247.663 0.0101733 168.796C-0.0565955 96.5716 45.4619 34.4635 110.117 10.4746C121.179 6.37023 132.561 3.52669 144.244 1.79836C155.658 0.109806 167.125 -0.3705 178.607 0.33357C235.348 3.81279 283.047 34.6645 310.838 78.4032C312.061 80.3281 313.462 81.6003 315.594 82.4122C319.335 83.837 322.968 85.5427 326.788 87.1915C327.377 86.2141 327.986 85.2216 328.579 84.2204C349.802 48.4245 379.943 23.3864 419.18 9.3723C430.669 5.26876 442.518 2.66931 454.639 1.21203C464.52 0.0240318 474.434 -0.335902 484.332 0.334418C528.211 3.30606 565.494 20.6429 596.165 52.1251C604.064 60.2326 610.973 69.1405 616.969 78.7397C617.992 80.379 619.203 81.4536 621.068 82.2041C667.139 100.745 702.506 138.234 718.331 185.196C722.1 196.378 724.617 207.834 725.917 219.567C726.652 226.206 726.995 232.855 726.994 239.531C726.985 341.645 726.987 443.76 726.988 545.874C726.989 553.231 727.008 560.588 726.996 567.945C726.994 569.019 727.017 570.129 726.772 571.161C725.375 577.033 718.424 579.985 713.247 576.517C712.516 576.027 711.839 575.452 711.162 574.888C679.503 548.5 647.848 522.109 616.192 495.717C615.74 495.34 615.276 494.976 614.843 494.578C612.947 492.831 611.905 490.695 611.909 488.086C611.913 484.85 611.909 481.614 611.908 478.083Z" fill="#0000FF"/>
</svg>
